<?xml version="1.0" encoding="utf-8"?>
<!-- Generator: Adobe Illustrator 15.0.0, SVG Export Plug-In . SVG Version: 6.00 Build 0)  -->
<!DOCTYPE svg PUBLIC "-//W3C//DTD SVG 1.1//EN" "http://www.w3.org/Graphics/SVG/1.1/DTD/svg11.dtd">
<svg version="1.1" id="Layer_1" xmlns="http://www.w3.org/2000/svg" xmlns:xlink="http://www.w3.org/1999/xlink" x="0px" y="0px"
	 width="60px" height="60px" viewBox="0 0 60 60" enable-background="new 0 0 60 60" xml:space="preserve">
<path d="M49.334,34.777l-0.123-0.146c-0.574-0.727-1.836-1.754-3.672-2.464l-0.291-0.089c-2.018-0.941-3.826-1.559-4.182-1.674
	c-0.402-0.136-0.74-0.282-1.012-0.403c-2.104-1.051-2.379-1.666-2.422-1.805l-0.105-0.25l0.098-0.23
	c1.574-1.99,2.682-4.311,3.107-6.509l0.064-0.152c0.436-0.559,0.713-1.213,0.822-1.936c0.494-1.834,0.52-3.18,0.072-4.118
	l-0.047-0.102l0.025-0.108c0.561-2.374,1.096-6.821-1.588-9.918c-0.426-0.542-2.063-2.387-5.264-3.337l-1.561-0.542
	C30.646,0.177,29.029,0.002,28.816,0c-0.17,0-0.32,0.015-0.537,0.069l-0.209,0.035c-0.826-0.134-1.846,0.243-2.122,0.352
	c-0.902,0.383-5.47,2.526-6.917,7.072c-0.241,0.643-0.73,2.607-0.094,6.908l0.019,0.131l-0.079,0.106
	c-0.65,0.881-0.699,2.316-0.155,4.252c0.138,0.855,0.412,1.536,0.821,2.059l0.073,0.156c0.396,2.248,1.382,4.472,2.851,6.428
	l0.137,0.186l-0.13,0.189c-0.063,0.097-0.106,0.194-0.116,0.255c-0.365,1.056-4.429,2.896-7.994,4.003
	c-2.563,0.985-3.691,2.578-3.695,2.592c-3.535,5.32-3.981,16.739-3.999,17.234c0.055,2.97,1.385,3.573,1.641,3.659l0.224,0.103
	c7.813,3.458,19.223,4.133,20.5,4.2L29.434,60c0.383,0,0.767-0.021,1.13-0.039l0.032-0.004l0.116,0.011
	C30.808,59.991,30.882,60,30.961,60h0.003h0.053c0.518-0.026,12.771-0.733,20.416-4.218c0.557-0.146,1.85-0.818,1.896-3.84
	C53.313,51.454,52.801,40.009,49.334,34.777z M21.275,20.56c-0.026-0.185-0.105-0.35-0.232-0.491
	c-0.313-0.329-0.512-0.805-0.635-1.511c-0.361-1.328-0.398-2.396-0.111-2.843l0.073-0.085c0.287-0.21,0.424-0.541,0.37-0.878
	c-0.713-4.367-0.247-6.185-0.086-6.643c1.246-3.879,5.17-5.693,5.941-6.015c0.161-0.065,0.46-0.157,0.777-0.208l0.08-0.018
	l0.65-0.038l0.003,0.04l0.139-0.013c0.13-0.013,0.253-0.032,0.403-0.063l0.148-0.035c0.121,0,1.636,0.193,3.92,0.903l1.574,0.549
	c2.873,0.862,4.211,2.477,4.455,2.798c2.309,2.657,1.693,6.666,1.121,8.819c-0.068,0.247-0.025,0.503,0.111,0.716l0.129,0.167
	c0.211,0.285,0.291,1.242-0.182,3.017c-0.094,0.58-0.307,1.049-0.617,1.362c-0.111,0.123-0.191,0.288-0.221,0.463
	c-0.781,4.645-4.881,9.84-9.2,9.84C26.215,30.396,22.028,25.614,21.275,20.56z M51.004,54.063
	c-7.029,3.193-17.648,4.02-19.705,4.154l-0.057,0.005l-0.059-0.018c-0.068-0.024-0.141-0.033-0.227-0.033h-0.003l-0.069,0.003
	c-0.564,0.039-1.029,0.059-1.463,0.059h-0.339c-1.283-0.076-12.732-0.84-20.062-4.15c-0.15-0.061-0.583-0.566-0.613-2.049
	c0.003-0.111,0.376-11.244,3.668-16.208c0.162-0.206,1.056-1.264,2.846-1.958c1.572-0.493,5.462-1.802,7.589-3.364
	c0.097-0.057,0.193-0.16,0.272-0.243c0.156-0.174,0.479-0.525,0.854-0.881l0.213-0.202l0.21,0.204
	c1.874,1.791,3.944,2.774,5.831,2.774c1.982,0,4.025-0.875,5.916-2.524l0.156-0.137l0.416,0.204
	c0.348,0.327,0.979,0.792,1.264,0.934l0.391,0.193l-0.045,0.043l0.152,0.091c0.355,0.213,0.738,0.419,1.172,0.641
	c0.439,0.197,0.816,0.346,1.215,0.479c0.08,0.026,1.943,0.639,4.074,1.639l0.379,0.12c2.021,0.781,2.871,1.884,2.904,1.923
	c3.137,4.721,3.666,15.038,3.717,16.19C51.576,53.568,51.125,53.98,51.004,54.063z"/>
</svg>
